15_ID_stride4.mot
nRows=12
nColumns=38

name 15_ID_stride4.mot
datacolumns 38
datarows 12
range 2.6450000000 2.7000000000
endheader
time	pelvis_tilt_moment	pelvis_list_moment	pelvis_rotation_moment	pelvis_tx_force	pelvis_ty_force	pelvis_tz_force	hip_flexion_r_moment	hip_adduction_r_moment	hip_rotation_r_moment	knee_angle_r_moment	ankle_angle_r_moment	subtalar_angle_r_moment	mtp_angle_r_moment	hip_flexion_l_moment	hip_adduction_l_moment	hip_rotation_l_moment	knee_angle_l_moment	ankle_angle_l_moment	subtalar_angle_l_moment	mtp_angle_l_moment	lumbar_extension_moment	lumbar_bending_moment	lumbar_rotation_moment	arm_flex_r_moment	arm_add_r_moment	arm_rot_r_moment	elbow_flex_r_moment	pro_sup_r_moment	wrist_flex_r_moment	wrist_dev_r_moment	arm_flex_l_moment	arm_add_l_moment	arm_rot_l_moment	elbow_flex_l_moment	pro_sup_l_moment	wrist_flex_l_moment	wrist_dev_l_moment
        2.6450000000	      -17.8928184481	       -6.7808143194	      -22.8350679584	       87.8409455924	      -15.4891138688	      -59.8613886541	       -0.7263180782	      -39.7778944880	        3.7675077433	       -6.7666170960	     -189.6579705447	       38.5890485603	       -0.0649165405	       -7.9991408218	        2.6009239613	       -0.9380107828	       -2.2809418656	        2.2370454950	       -0.1835520016	        0.1287415200	       19.9778758761	       16.7425434261	      -45.4663928708	        0.0635967239	       -4.0720537047	       -4.7933795142	        4.8242239957	       -0.2491964753	       -0.4211707085	       -0.5200801262	        8.9703930611	        7.7638197813	        5.3401421532	        5.2186255279	        0.0554182816	        0.6533431498	       -0.3199790270	
        2.6500000000	      -16.4807455258	      -15.4823080998	      -23.3508862054	      107.4347128178	      -36.1356922906	      -36.2704803542	       -2.9782680061	      -32.4456177484	        1.3940965367	      -13.3208096534	     -171.6479183916	       35.4081471412	       -0.0728095299	      -10.3676152061	        3.2485418948	       -1.8588133913	       -2.3587841084	        2.3154986414	       -0.1556504571	        0.1358951889	       12.8143664945	       16.5780571477	      -45.6483276362	       -0.7046093952	       -4.4904532631	       -4.9103468115	        3.9699967229	       -0.2373251052	       -0.4517438156	       -0.4471935709	        8.3722066382	        7.6442091584	        5.3433540881	        4.4222052151	        0.0731659394	        0.6435429889	       -0.2462319782	
        2.6550000000	      -12.5680224200	      -24.1821488152	      -22.1369739736	      124.8838421874	      -55.9904813942	       -7.9273433121	       -5.4391784505	      -29.2740077710	        1.4272373835	      -20.1668744244	     -153.2705740294	       31.8297995240	       -0.0743457285	      -13.1978611669	        3.3310951806	       -2.7645499092	       -2.7516897692	        2.3737378255	       -0.1299401539	        0.1424407957	        6.7956547206	       16.7252153829	      -45.2008224567	       -1.4969995769	       -4.6520324500	       -4.8823803483	        3.0842007129	       -0.2194827463	       -0.4599714745	       -0.3680496098	        7.5145843077	        7.2887957491	        5.2592752510	        3.6003534795	        0.0873726642	        0.6161696472	       -0.1738085587	
        2.6600000000	       -8.7428493872	      -26.2938088313	      -17.9299833644	      130.9629395475	      -75.7306674759	       16.3643089106	       -5.0065697915	      -27.3680836865	        2.5684543334	      -22.9295544026	     -133.8884800602	       27.5470724378	       -0.0723961530	      -16.0948603901	        2.7010204385	       -3.0998461280	       -3.5054206603	        2.4260898207	       -0.1275894859	        0.1483912096	        2.2856378064	       17.3816890841	      -43.2989005913	       -2.2578160844	       -4.6423011109	       -4.6633169110	        2.2097661101	       -0.1967974158	       -0.4576746912	       -0.2869980377	        6.5134263547	        6.6908381975	        4.9765102192	        2.8023598108	        0.0968864649	        0.5736159112	       -0.1076417379	
        2.6650000000	       -7.2662164591	      -19.2373138838	      -14.1100177731	      128.1308751840	      -97.8238915329	       31.3897080009	        2.8537642322	      -24.3703048282	        3.1007023440	      -22.8763914357	     -113.4921380030	       22.8079036900	       -0.0596201900	      -18.6656188466	        0.8006133973	       -3.0864439909	       -4.3640146509	        2.4835954576	       -0.1641962786	        0.1537872735	       -0.6174568683	       18.2001321095	      -40.4363806472	       -2.9394614306	       -4.3114660819	       -4.2454262267	        1.3745068732	       -0.1699277938	       -0.4317560488	       -0.2069666740	        5.4459794181	        5.8359005242	        4.5236722843	        2.0568794660	        0.1009124900	        0.5161403554	       -0.0505635254	
        2.6700000000	       -9.6198920138	       -2.7354569104	      -11.8788241169	      107.3823152901	     -124.9653732442	       36.9708706422	       15.0466796629	      -17.6428927198	        1.5867976775	      -18.5953095511	      -93.1724733772	       18.4105045954	       -0.0364818531	      -20.5859967975	       -1.8001048289	       -2.4336990949	       -5.0857235282	        2.5520726897	       -0.2350713204	        0.1586535851	       -2.0818521415	       18.8541193420	      -36.7589552391	       -3.5092388220	       -3.7083585210	       -3.6607826751	        0.5953369296	       -0.1397080438	       -0.3895586048	       -0.1299313280	        4.3762440687	        4.7383357498	        3.9089790990	        1.3776717606	        0.1002761625	        0.4452506217	       -0.0036092974	
        2.6750000000	      -14.4027328766	       15.1497062693	      -11.3834004055	       76.4504441501	     -156.8088864591	       35.8565999909	       25.8531139874	       -8.6229968324	       -1.2099420328	      -15.5277583435	      -74.9756592252	       15.3316553002	       -0.0019700115	      -21.5922965196	       -4.4367257241	       -1.6137383106	       -5.4234287377	        2.6274120909	       -0.3185695274	        0.1629540360	       -1.9827425455	       18.7930970428	      -32.4547479336	       -3.9494133942	       -2.8751463173	       -2.9383136868	       -0.1150758523	       -0.1070704258	       -0.3335704065	       -0.0572419908	        3.3412621517	        3.4364750035	        3.1588014395	        0.7709086640	        0.0948381312	        0.3634858981	        0.0331747272	
        2.6800000000	      -16.4778398672	       27.7548355429	      -10.7750913593	       40.3231060261	     -187.0236026977	       35.4039518798	       29.0032520528	       -0.6282021767	       -2.5087033351	      -15.0766967708	      -59.7242901100	       13.1462571829	        0.0426112547	      -21.8319912248	       -5.7082328757	       -0.9810788434	       -5.4798312101	        2.6960661354	       -0.3902355373	        0.1666502951	       -1.5389095619	       18.4651620908	      -27.7270301347	       -4.2816445468	       -1.8671306067	       -2.1173692499	       -0.7417429483	       -0.0733596058	       -0.2670047338	        0.0099079006	        2.3382632622	        2.0001298632	        2.3175226962	        0.2439704722	        0.0850099398	        0.2750395279	        0.0605914604	
        2.6850000000	      -16.3787156305	       32.7197854124	       -9.3660366687	        3.7100582219	     -205.9498995889	       37.2756341103	       27.1269089548	        3.7390747697	       -2.5353730087	      -18.6792889467	      -47.6777260554	       11.4503343947	        0.0976049137	      -21.6438931748	       -5.9142703084	       -0.7232471428	       -5.3766880580	        2.7491021718	       -0.4267751432	        0.1697233816	        0.0123494131	       17.0772103049	      -22.6751722671	       -4.5138702562	       -0.7117590308	       -1.2168494001	       -1.2587130782	       -0.0396364722	       -0.1910675889	        0.0694473670	        1.3709686302	        0.4713294822	        1.4108837248	       -0.1831406207	        0.0712505800	        0.1826022111	        0.0781546143	
        2.6900000000	       -9.8667956834	       30.2973724804	       -6.7375025763	      -29.2811225053	     -207.8221980659	       44.7025955783	       18.4862938173	        4.2620553747	        0.3159906848	      -24.2471241065	      -37.8054436787	        9.1249203562	        0.1588240716	      -21.1163533786	       -3.7704072278	       -1.0032788685	       -5.3866402955	        2.7822265187	       -0.4266714600	        0.1723463186	        1.8814369704	       15.1327333432	      -17.5016379962	       -4.6663676275	        0.5104855648	       -0.2849029595	       -1.6413555454	       -0.0076764589	       -0.1096701660	        0.1192068108	        0.4344305122	       -1.0559445422	        0.4956530490	       -0.4910589371	        0.0543887876	        0.0914764629	        0.0862483305	
        2.6950000000	       -0.6481757163	       22.3693224920	       -4.5087877752	      -57.8502838982	     -182.7453317718	       56.3704284846	        8.5165215360	        2.4813523167	        3.5856103772	      -28.6629390895	      -29.3302358622	        5.8867163528	        0.2220043344	      -20.7734592839	        0.1388577749	       -1.7491158727	       -5.9269117487	        2.7884948456	       -0.3821510490	        0.1744676330	        3.7681250153	       12.9135573374	      -12.3843518613	       -4.7351597833	        1.7235682811	        0.6306914605	       -1.8652827061	        0.0206570670	       -0.0265482820	        0.1564010596	       -0.4531945852	       -2.4875632535	       -0.3757736740	       -0.6534058854	        0.0351083723	        0.0066686523	        0.0827686752	
        2.7000000000	        8.0997204507	       23.8974379505	       -4.3195714686	      -82.0999736788	     -110.9705655335	       48.5886710569	       14.1008432067	        4.4599776905	        5.2310501252	      -22.7420365419	      -14.7319638736	        2.1603984448	        0.2822497629	      -20.9868190477	        5.3444800358	       -2.7603856677	       -7.2303967650	        2.7745348372	       -0.3033106951	        0.1752006024	        5.1286790761	       10.7871326656	       -7.5266171250	       -4.7093607738	        2.8388132557	        1.4730784038	       -1.8757717576	        0.0437914606	        0.0532487066	        0.1797394367	       -1.2531517568	       -3.7281094047	       -1.1511814397	       -0.6453079935	        0.0146628623	       -0.0672575048	        0.0712735482	
